<svg width="22" height="22" viewBox="0 0 22 22" fill="none" xmlns="http://www.w3.org/2000/svg">
<path d="M11 2.0625C6.072 2.0625 2.0625 6.072 2.0625 11C2.0625 15.928 6.072 19.9375 11 19.9375C15.928 19.9375 19.9375 15.928 19.9375 11C19.9375 6.072 15.928 2.0625 11 2.0625ZM11 3.4375C15.1848 3.4375 18.5625 6.81519 18.5625 11C18.5625 15.1848 15.1848 18.5625 11 18.5625C6.81519 18.5625 3.4375 15.1848 3.4375 11C3.4375 6.81519 6.81519 3.4375 11 3.4375ZM10.3125 6.875V10.3125H6.875V11.6875H10.3125V15.125H11.6875V11.6875H15.125V10.3125H11.6875V6.875H10.3125Z" fill="black"/>
</svg>
