<svg width="34" height="34" viewBox="0 0 34 34" fill="none" xmlns="http://www.w3.org/2000/svg">
<path d="M28.6668 3.66683H25.3335V2.00016C25.3335 1.55814 25.1579 1.13421 24.8453 0.821651C24.5328 0.509091 24.1089 0.333496 23.6668 0.333496C23.2248 0.333496 22.8009 0.509091 22.4883 0.821651C22.1758 1.13421 22.0002 1.55814 22.0002 2.00016V3.66683H12.0002V2.00016C12.0002 1.55814 11.8246 1.13421 11.512 0.821651C11.1994 0.509091 10.7755 0.333496 10.3335 0.333496C9.89147 0.333496 9.46755 0.509091 9.15498 0.821651C8.84242 1.13421 8.66683 1.55814 8.66683 2.00016V3.66683H5.3335C4.00741 3.66683 2.73564 4.19361 1.79796 5.1313C0.86028 6.06898 0.333496 7.34075 0.333496 8.66683V28.6668C0.333496 29.9929 0.86028 31.2647 1.79796 32.2024C2.73564 33.14 4.00741 33.6668 5.3335 33.6668H28.6668C29.9929 33.6668 31.2647 33.14 32.2024 32.2024C33.14 31.2647 33.6668 29.9929 33.6668 28.6668V8.66683C33.6668 7.34075 33.14 6.06898 32.2024 5.1313C31.2647 4.19361 29.9929 3.66683 28.6668 3.66683ZM30.3335 28.6668C30.3335 29.1089 30.1579 29.5328 29.8453 29.8453C29.5328 30.1579 29.1089 30.3335 28.6668 30.3335H5.3335C4.89147 30.3335 4.46755 30.1579 4.15499 29.8453C3.84242 29.5328 3.66683 29.1089 3.66683 28.6668V17.0002H30.3335V28.6668ZM30.3335 13.6668H3.66683V8.66683C3.66683 8.2248 3.84242 7.80088 4.15499 7.48832C4.46755 7.17576 4.89147 7.00016 5.3335 7.00016H8.66683V8.66683C8.66683 9.10886 8.84242 9.53278 9.15498 9.84534C9.46755 10.1579 9.89147 10.3335 10.3335 10.3335C10.7755 10.3335 11.1994 10.1579 11.512 9.84534C11.8246 9.53278 12.0002 9.10886 12.0002 8.66683V7.00016H22.0002V8.66683C22.0002 9.10886 22.1758 9.53278 22.4883 9.84534C22.8009 10.1579 23.2248 10.3335 23.6668 10.3335C24.1089 10.3335 24.5328 10.1579 24.8453 9.84534C25.1579 9.53278 25.3335 9.10886 25.3335 8.66683V7.00016H28.6668C29.1089 7.00016 29.5328 7.17576 29.8453 7.48832C30.1579 7.80088 30.3335 8.2248 30.3335 8.66683V13.6668Z" fill="black"/>
</svg>
