<svg width="40" height="40" viewBox="0 0 40 40" fill="none" xmlns="http://www.w3.org/2000/svg">
<path d="M28.125 22.5H25V17.5H28.125C29.2375 17.5 30.3251 17.1701 31.2501 16.552C32.1751 15.9339 32.8961 15.0554 33.3218 14.0276C33.7476 12.9998 33.859 11.8688 33.6419 10.7776C33.4249 9.68648 32.8891 8.6842 32.1025 7.89753C31.3158 7.11086 30.3135 6.57513 29.2224 6.35809C28.1312 6.14104 27.0002 6.25244 25.9724 6.67818C24.9446 7.10392 24.0661 7.82489 23.448 8.74992C22.8299 9.67495 22.5 10.7625 22.5 11.875V15H17.5V11.875C17.5 10.7625 17.1701 9.67495 16.552 8.74992C15.9339 7.82489 15.0554 7.10392 14.0276 6.67818C12.9998 6.25244 11.8688 6.14104 10.7776 6.35809C9.68648 6.57513 8.6842 7.11086 7.89753 7.89753C7.11086 8.6842 6.57513 9.68648 6.35809 10.7776C6.14104 11.8688 6.25244 12.9998 6.67818 14.0276C7.10392 15.0554 7.82489 15.9339 8.74992 16.552C9.67495 17.1701 10.7625 17.5 11.875 17.5H15V22.5H11.875C10.7625 22.5 9.67495 22.8299 8.74992 23.448C7.82489 24.0661 7.10392 24.9446 6.67818 25.9724C6.25244 27.0002 6.14104 28.1312 6.35809 29.2224C6.57513 30.3135 7.11086 31.3158 7.89753 32.1025C8.6842 32.8891 9.68648 33.4249 10.7776 33.6419C11.8688 33.859 12.9998 33.7476 14.0276 33.3218C15.0554 32.8961 15.9339 32.1751 16.552 31.2501C17.1701 30.3251 17.5 29.2375 17.5 28.125V25H22.5V28.125C22.5 29.2375 22.8299 30.3251 23.448 31.2501C24.0661 32.1751 24.9446 32.8961 25.9724 33.3218C27.0002 33.7476 28.1312 33.859 29.2224 33.6419C30.3135 33.4249 31.3158 32.8891 32.1025 32.1025C32.8891 31.3158 33.4249 30.3135 33.6419 29.2224C33.859 28.1312 33.7476 27.0002 33.3218 25.9724C32.8961 24.9446 32.1751 24.0661 31.2501 23.448C30.3251 22.8299 29.2375 22.5 28.125 22.5ZM25 11.875C25 11.2569 25.1833 10.6527 25.5267 10.1388C25.87 9.62494 26.3581 9.2244 26.9291 8.98788C27.5001 8.75135 28.1285 8.68947 28.7347 8.81005C29.3409 8.93063 29.8977 9.22825 30.3347 9.66529C30.7718 10.1023 31.0694 10.6592 31.19 11.2653C31.3105 11.8715 31.2486 12.4999 31.0121 13.0709C30.7756 13.6419 30.3751 14.13 29.8612 14.4733C29.3473 14.8167 28.7431 15 28.125 15H25V11.875ZM8.75 11.875C8.75 11.0462 9.07924 10.2513 9.66529 9.66529C10.2513 9.07924 11.0462 8.75 11.875 8.75C12.7038 8.75 13.4987 9.07924 14.0847 9.66529C14.6708 10.2513 15 11.0462 15 11.875V15H11.875C11.0462 15 10.2513 14.6708 9.66529 14.0847C9.07924 13.4987 8.75 12.7038 8.75 11.875ZM15 28.125C15 28.7431 14.8167 29.3473 14.4733 29.8612C14.13 30.3751 13.6419 30.7756 13.0709 31.0121C12.4999 31.2486 11.8715 31.3105 11.2653 31.19C10.6592 31.0694 10.1023 30.7718 9.66529 30.3347C9.22825 29.8977 8.93063 29.3409 8.81005 28.7347C8.68947 28.1285 8.75135 27.5001 8.98788 26.9291C9.2244 26.3581 9.62494 25.87 10.1388 25.5267C10.6527 25.1833 11.2569 25 11.875 25H15V28.125ZM17.5 17.5H22.5V22.5H17.5V17.5ZM28.125 31.25C27.2962 31.25 26.5013 30.9208 25.9153 30.3347C25.3292 29.7487 25 28.9538 25 28.125V25H28.125C28.9538 25 29.7487 25.3292 30.3347 25.9153C30.9208 26.5013 31.25 27.2962 31.25 28.125C31.25 28.9538 30.9208 29.7487 30.3347 30.3347C29.7487 30.9208 28.9538 31.25 28.125 31.25Z" fill="#8d8d8d"/>
</svg>
