<svg width="40" height="40" viewBox="0 0 40 40" fill="none" xmlns="http://www.w3.org/2000/svg">
<path d="M12.5 3.75C12.5 3.41848 12.6317 3.10054 12.8661 2.86612C13.1005 2.6317 13.4185 2.5 13.75 2.5C14.0815 2.5 14.3995 2.6317 14.6339 2.86612C14.8683 3.10054 15 3.41848 15 3.75V5H18.75V3.75C18.75 3.41848 18.8817 3.10054 19.1161 2.86612C19.3505 2.6317 19.6685 2.5 20 2.5C20.3315 2.5 20.6495 2.6317 20.8839 2.86612C21.1183 3.10054 21.25 3.41848 21.25 3.75V5H25V3.75C25 3.41848 25.1317 3.10054 25.3661 2.86612C25.6005 2.6317 25.9185 2.5 26.25 2.5C26.5815 2.5 26.8995 2.6317 27.1339 2.86612C27.3683 3.10054 27.5 3.41848 27.5 3.75V5H29.6875C30.7649 5 31.7983 5.42801 32.5601 6.18988C33.322 6.95175 33.75 7.98506 33.75 9.0625V26.25C33.7499 26.5815 33.6182 26.8994 33.3838 27.1338L24.6338 35.8838C24.3994 36.1182 24.0815 36.2499 23.75 36.25H10.3125C9.23506 36.25 8.20175 35.822 7.43988 35.0601C6.67801 34.2983 6.25 33.2649 6.25 32.1875V9.0625C6.25 7.98506 6.67801 6.95175 7.43988 6.18988C8.20175 5.42801 9.23506 5 10.3125 5H12.5V3.75ZM8.75 9.0625V32.1875C8.75 33.05 9.45 33.75 10.3125 33.75H21.875V29.0625C21.875 27.9851 22.303 26.9517 23.0649 26.1899C23.8267 25.428 24.8601 25 25.9375 25H31.25V9.0625C31.25 8.2 30.55 7.5 29.6875 7.5H10.3125C9.45 7.5 8.75 8.2 8.75 9.0625ZM24.375 32.6075L29.4825 27.5H25.9375C25.075 27.5 24.375 28.2 24.375 29.0625V32.6075ZM13.75 12.5C13.4185 12.5 13.1005 12.6317 12.8661 12.8661C12.6317 13.1005 12.5 13.4185 12.5 13.75C12.5 14.0815 12.6317 14.3995 12.8661 14.6339C13.1005 14.8683 13.4185 15 13.75 15H26.25C26.5815 15 26.8995 14.8683 27.1339 14.6339C27.3683 14.3995 27.5 14.0815 27.5 13.75C27.5 13.4185 27.3683 13.1005 27.1339 12.8661C26.8995 12.6317 26.5815 12.5 26.25 12.5H13.75ZM12.5 20C12.5 19.6685 12.6317 19.3505 12.8661 19.1161C13.1005 18.8817 13.4185 18.75 13.75 18.75H26.25C26.5815 18.75 26.8995 18.8817 27.1339 19.1161C27.3683 19.3505 27.5 19.6685 27.5 20C27.5 20.3315 27.3683 20.6495 27.1339 20.8839C26.8995 21.1183 26.5815 21.25 26.25 21.25H13.75C13.4185 21.25 13.1005 21.1183 12.8661 20.8839C12.6317 20.6495 12.5 20.3315 12.5 20ZM13.75 25C13.4185 25 13.1005 25.1317 12.8661 25.3661C12.6317 25.6005 12.5 25.9185 12.5 26.25C12.5 26.5815 12.6317 26.8995 12.8661 27.1339C13.1005 27.3683 13.4185 27.5 13.75 27.5H18.75C19.0815 27.5 19.3995 27.3683 19.6339 27.1339C19.8683 26.8995 20 26.5815 20 26.25C20 25.9185 19.8683 25.6005 19.6339 25.3661C19.3995 25.1317 19.0815 25 18.75 25H13.75Z" fill="black"/>
</svg>
