<svg width="86" height="86" viewBox="0 0 86 86" fill="none" xmlns="http://www.w3.org/2000/svg">
<path d="M10.75 75.2502L28.6667 57.3335M47.5114 67.6213C34.0954 64.5754 21.4248 51.9048 18.3789 38.4888C17.8952 36.3674 17.6551 35.3068 18.3538 33.5832C19.049 31.8632 19.9054 31.3257 21.6111 30.2614C25.4668 27.8534 29.6449 27.0866 33.9772 27.4664C40.0581 28.0075 43.1003 28.2763 44.6197 27.4843C46.1354 26.696 47.1638 24.847 49.2278 21.1526L51.8365 16.4692C53.5565 13.3875 54.4165 11.8431 56.4411 11.1157C58.4657 10.3883 59.684 10.829 62.1207 11.7105C64.9209 12.716 67.464 14.3285 69.5678 16.4323C71.6717 18.5362 73.2841 21.0793 74.2897 23.8795C75.1712 26.3162 75.6119 27.5345 74.8845 29.5591C74.1571 31.5801 72.6162 32.4401 69.531 34.1637L64.7401 36.8333C61.0492 38.8901 59.2074 39.9221 58.4155 41.4522C57.6272 42.9858 57.9138 45.96 58.4872 51.9083C58.91 56.28 58.1826 60.4868 55.7423 64.3927C54.6745 66.0983 54.1406 66.9512 52.417 67.6499C50.697 68.3451 49.6363 68.105 47.5114 67.6213Z" stroke="black" stroke-width="2.5" stroke-linecap="round" stroke-linejoin="round"/>
</svg>
