<svg width="40" height="40" viewBox="0 0 40 40" fill="none" xmlns="http://www.w3.org/2000/svg">
<path d="M36.3737 15.0012L36.4066 15.0948L36.5287 15.4991L36.6308 15.8619L36.6744 16.0277L36.7458 16.3277C37.6723 20.5081 36.9961 24.8841 34.8508 28.5898C32.7104 32.307 29.2505 35.0836 25.158 36.3684L24.8694 36.4541L24.5151 36.5455L24.003 36.6669C23.8221 36.7081 23.6346 36.7116 23.4523 36.6771C23.27 36.6426 23.0968 36.5709 22.9434 36.4665C22.7901 36.3621 22.6599 36.2272 22.561 36.0702C22.4621 35.9132 22.3967 35.7375 22.3687 35.5541C22.3113 35.1776 22.3973 34.7934 22.6097 34.4773C22.8222 34.1613 23.1456 33.9366 23.5158 33.8477L23.928 33.7441C24.1851 33.6765 24.4063 33.6115 24.5915 33.5491C27.8782 32.4394 30.6465 30.1679 32.3765 27.1612C34.1168 24.1568 34.699 20.62 34.0137 17.2162L33.9644 16.9927L33.8987 16.7319L33.8165 16.4334L33.718 16.0977C33.6076 15.7314 33.6388 15.3371 33.8055 14.9929C33.9722 14.6486 34.2622 14.3796 34.618 14.2391C34.7833 14.1738 34.9599 14.1417 35.1376 14.1446C35.3153 14.1476 35.4907 14.1856 35.6538 14.2563C35.8168 14.3271 35.9643 14.4293 36.0879 14.5571C36.2114 14.685 36.3085 14.8359 36.3737 15.0012ZM5.27512 14.2284C5.30607 14.2379 5.33655 14.2484 5.36655 14.2598C5.72152 14.3981 6.01156 14.6648 6.17918 15.0069C6.3468 15.3491 6.37977 15.7417 6.27155 16.1069C6.14297 16.5398 6.05012 16.9 5.99297 17.1877C5.31065 20.5887 5.89357 24.1218 7.63226 27.1234C9.36387 30.1327 12.1356 32.4055 15.4258 33.5141L15.6444 33.5834L15.7687 33.6191L16.0473 33.6948L16.543 33.8169C16.9154 33.9045 17.2413 34.1289 17.456 34.4455C17.6708 34.7621 17.7586 35.1478 17.7023 35.5262C17.6493 35.881 17.4577 36.2003 17.1694 36.4138C16.8812 36.6273 16.5199 36.7176 16.1651 36.6648L16.0665 36.6469L15.6551 36.5505L15.2908 36.4577L14.9723 36.3684L14.8294 36.3255C10.7453 35.0372 7.29358 32.2628 5.15726 28.5512C3.00805 24.839 2.33316 20.4544 3.26655 16.2677L3.32155 16.0391L3.39297 15.7712L3.53155 15.2962L3.58583 15.1177C3.6383 14.9483 3.72361 14.7909 3.83691 14.6545C3.9502 14.5181 4.08925 14.4054 4.24612 14.3227C4.40299 14.2401 4.5746 14.1892 4.75116 14.1728C4.92772 14.1565 5.10576 14.1759 5.27512 14.2284ZM20.0365 8.57123C26.3487 8.57123 31.4651 13.6877 31.4651 19.9998C31.4651 26.3119 26.3487 31.4284 20.0365 31.4284C13.7244 31.4284 8.60797 26.3119 8.60797 19.9998C8.60797 13.6877 13.7251 8.57123 20.0365 8.57123ZM20.0365 11.4284C15.303 11.4284 11.4651 15.2662 11.4651 19.9998C11.4651 24.7334 15.303 28.5712 20.0365 28.5712C24.7708 28.5712 28.608 24.7334 28.608 19.9998C28.608 15.2662 24.7708 11.4284 20.0365 11.4284ZM20.0365 2.85695C24.3261 2.85169 28.4609 4.4595 31.6201 7.36123L31.7908 7.52338L31.9873 7.71909L32.2087 7.94909L32.4558 8.21266C32.5819 8.34872 32.6786 8.50929 32.7399 8.68437C32.8011 8.85945 32.8257 9.04528 32.8119 9.23026C32.7982 9.41524 32.7465 9.59541 32.66 9.75952C32.5736 9.92362 32.4542 10.0682 32.3094 10.1841C32.0121 10.4223 31.6361 10.5401 31.256 10.5142C30.8759 10.4883 30.5195 10.3205 30.2573 10.0441C30.102 9.8798 29.958 9.7329 29.8251 9.60338L29.5751 9.3648L29.4608 9.26266C26.8567 6.97109 23.5054 5.70922 20.0365 5.71409C16.5645 5.70906 13.2103 6.9731 10.6051 9.26838L10.5237 9.34123L10.343 9.51266L10.138 9.71623L9.7844 10.0841C9.24155 10.6619 8.34583 10.7269 7.72512 10.2341C7.58591 10.1236 7.46985 9.98673 7.38356 9.83134C7.29726 9.67596 7.24244 9.5051 7.2222 9.32852C7.20197 9.15194 7.21673 8.9731 7.26565 8.80223C7.31456 8.63135 7.39666 8.47179 7.50726 8.33266L7.57155 8.25695L7.86083 7.94909L8.12369 7.67909C8.24845 7.55385 8.36369 7.44314 8.4694 7.34695C11.6264 4.45441 15.7541 2.85209 20.0358 2.85695" fill="black"/>
</svg>
