<svg width="38" height="38" viewBox="0 0 38 38" fill="none" xmlns="http://www.w3.org/2000/svg">
<path d="M19.9768 3.31016C19.3519 2.685 18.5041 2.33368 17.6202 2.3335H5.66683C4.78277 2.3335 3.93493 2.68469 3.30981 3.30981C2.68469 3.93493 2.3335 4.78277 2.3335 5.66683V17.6202C2.33368 18.5041 2.685 19.3519 3.31016 19.9768L17.8168 34.4835C18.5744 35.2362 19.5989 35.6587 20.6668 35.6587C21.7348 35.6587 22.7593 35.2362 23.5168 34.4835L34.4835 23.5168C35.2362 22.7593 35.6587 21.7348 35.6587 20.6668C35.6587 19.5989 35.2362 18.5744 34.4835 17.8168L19.9768 3.31016Z" stroke="black" stroke-width="3.33333" stroke-linecap="round" stroke-linejoin="round"/>
<path d="M11.5003 12.3337C11.9606 12.3337 12.3337 11.9606 12.3337 11.5003C12.3337 11.0401 11.9606 10.667 11.5003 10.667C11.0401 10.667 10.667 11.0401 10.667 11.5003C10.667 11.9606 11.0401 12.3337 11.5003 12.3337Z" fill="black" stroke="black" stroke-width="3.33333" stroke-linecap="round" stroke-linejoin="round"/>
</svg>
