<svg width="25" height="22" viewBox="0 0 25 22" fill="none" xmlns="http://www.w3.org/2000/svg">
<path d="M16.5556 20.9997V18.7775C16.5556 17.5987 16.0873 16.4683 15.2538 15.6348C14.4203 14.8013 13.2899 14.333 12.1111 14.333H5.44444C4.2657 14.333 3.13524 14.8013 2.30175 15.6348C1.46825 16.4683 1 17.5987 1 18.7775V20.9997" stroke="black" stroke-width="2" stroke-linecap="round" stroke-linejoin="round"/>
<path d="M8.77794 9.88889C11.2325 9.88889 13.2224 7.89904 13.2224 5.44444C13.2224 2.98985 11.2325 1 8.77794 1C6.32334 1 4.3335 2.98985 4.3335 5.44444C4.3335 7.89904 6.32334 9.88889 8.77794 9.88889Z" stroke="black" stroke-width="2" stroke-linecap="round" stroke-linejoin="round"/>
<path d="M23.2223 21.0001V18.7779C23.2216 17.7931 22.8938 16.8365 22.2905 16.0582C21.6872 15.2799 20.8425 14.7241 19.889 14.4779M16.5557 1.14453C17.5117 1.38931 18.359 1.94531 18.9642 2.72488C19.5693 3.50444 19.8977 4.46323 19.8977 5.45009C19.8977 6.43694 19.5693 7.39573 18.9642 8.1753C18.359 8.95486 17.5117 9.51086 16.5557 9.75564" stroke="black" stroke-width="2" stroke-linecap="round" stroke-linejoin="round"/>
</svg>
